<?xml version="1.0" encoding="UTF-8" standalone="no"?>
<!-- Created with Inkscape (http://www.inkscape.org/) -->

<svg
   version="1.1"
   id="svg4392"
   width="32"
   height="32"
   viewBox="0 0 32 32"
   xmlns="http://www.w3.org/2000/svg"
   xmlns:svg="http://www.w3.org/2000/svg"
   xmlns:rdf="http://www.w3.org/1999/02/22-rdf-syntax-ns#"
   xmlns:cc="http://creativecommons.org/ns#"
   xmlns:dc="http://purl.org/dc/elements/1.1/">
  <metadata
     id="metadata4398">
    <rdf:RDF>
      <cc:Work
         rdf:about="">
        <dc:format>image/svg+xml</dc:format>
        <dc:type
           rdf:resource="http://purl.org/dc/dcmitype/StillImage" />
      </cc:Work>
    </rdf:RDF>
  </metadata>
  <defs
     id="defs4396" />
  <g
     id="g4400"
     transform="translate(0,-10.666668)">
    <rect
       style="fill:#67727d;fill-opacity:0.98039216;stroke:#000000;stroke-width:0.09999999;stroke-miterlimit:4;stroke-dasharray:none;stroke-opacity:1"
       id="rect4947"
       width="5.4231219"
       height="17.513117"
       x="13.239362"
       y="11.743187"
       ry="2.2420516"
       rx="2.2420516" />
    <path
       style="fill:#67727d;stroke:#000000;stroke-width:0.1;stroke-linecap:butt;stroke-linejoin:miter;stroke-miterlimit:4;stroke-dasharray:none;stroke-opacity:1;fill-opacity:0.98039216"
       d="m 16,30.15625 c 2.798705,0.05031 5.721115,-0.748786 8.089841,-2.240234 2.368727,-1.491448 4.288882,-3.68492 5.453125,-6.230469 1.400229,-3.061516 1.687218,-6.603553 0.884765,-9.873047 -0.231129,-0.941705 -0.549329,-1.861433 -0.9375,-2.75 -0.523082,-1.197392 -1.20724,-2.3782524 -2.27539,-3.1308594 -0.634735,-0.447227 -1.39937,-0.7261169 -2.175782,-0.7167968 h 3e-6 c -0.776409,0.0093 -1.559384,0.3230518 -2.074218,0.9042968 -0.316307,0.357109 -0.526148,0.8056557 -0.609375,1.2753906 -0.08323,0.469734 -0.04099,0.9593754 0.109375,1.4121094 0.17115,0.515323 0.476286,0.976806 0.808594,1.4062504 0.332308,0.429443 0.695515,0.834322 1.003906,1.28125 0.789161,1.143671 1.196393,2.536414 1.216797,3.925781 0.0204,1.389367 -0.337907,2.772665 -0.966797,4.011719 -0.783214,1.543107 -1.98996,2.86898 -3.453125,3.792968 C 19.611055,24.148597 17.729934,24.708007 16,24.751953 v 0 C 14.270066,24.708003 12.486605,24.148597 11.02344,23.224609 9.5602734,22.30062 8.3535269,20.974748 7.5703125,19.431641 6.9414224,18.192587 6.5831116,16.809289 6.6035156,15.419922 6.6239195,14.030555 7.0311519,12.637812 7.8203125,11.494141 8.1287038,11.047213 8.4919114,10.642334 8.8242188,10.212891 9.1565261,9.7834466 9.4616628,9.3219636 9.6328125,8.8066406 9.7831757,8.3539066 9.8254155,7.8642652 9.7421875,7.3945312 9.65896,6.9247962 9.4491195,6.4762496 9.1328125,6.1191406 8.6179787,5.5378956 7.8350042,5.2241437 7.0585938,5.2148438 6.2821833,5.2055237 5.5175471,5.4844136 4.8828125,5.9316406 3.8146626,6.6842476 3.1305035,7.865108 2.6074219,9.0625 c -0.3881714,0.888567 -0.7063712,1.808295 -0.9375,2.75 -0.80245312,3.269494 -0.5154627,6.811531 0.8847656,9.873047 1.1642433,2.545549 3.0843988,4.739021 5.453125,6.230469 C 10.692802,29.325344 13.463106,30.193921 16,30.15625 Z"
       transform="translate(0,10.666668)"
       id="path4967" />
  </g>
</svg>
