<?xml version="1.0" encoding="UTF-8" standalone="no"?>
<svg
   width="32"
   height="32"
   version="1.1"
   viewBox="0 0 32 32"
   id="svg10"
   xmlns="http://www.w3.org/2000/svg"
   xmlns:svg="http://www.w3.org/2000/svg"
   xmlns:rdf="http://www.w3.org/1999/02/22-rdf-syntax-ns#"
   xmlns:cc="http://creativecommons.org/ns#"
   xmlns:dc="http://purl.org/dc/elements/1.1/">
  <metadata
     id="metadata16">
    <rdf:RDF>
      <cc:Work
         rdf:about="">
        <dc:format>image/svg+xml</dc:format>
        <dc:type
           rdf:resource="http://purl.org/dc/dcmitype/StillImage" />
      </cc:Work>
    </rdf:RDF>
  </metadata>
  <defs
     id="defs14" />
  <g
     aria-label="S"
     id="g8"
     style="fill:#67727d;fill-opacity:1">
    <g
       aria-label="S"
       id="text843"
       style="font-size:40px;line-height:1.25;font-family:Cantarell;-inkscape-font-specification:Cantarell">
      <path
         id="path853"
         d="M 17.076172 1.7382812 C 10.876172 1.7382812 6.8378906 4.8182031 6.8378906 9.6582031 C 6.8378906 10.757212 7.0520566 11.67602 7.4179688 12.462891 L 12.083984 12.462891 C 10.957319 11.701274 10.236328 10.676038 10.236328 9.1386719 C 10.236328 6.2186719 12.597891 4.6191406 16.837891 4.6191406 C 19.197891 4.6191406 21.757812 5.0994531 23.757812 5.9394531 L 24.757812 3.3378906 C 22.397813 2.2978906 19.716172 1.7382812 17.076172 1.7382812 z M 20.724609 19.533203 C 21.724337 20.288807 22.357422 21.277972 22.357422 22.699219 C 22.357422 25.499219 19.957813 27.298828 15.757812 27.298828 C 13.237813 27.298828 10.116484 26.618047 7.3964844 25.498047 L 6.3964844 28.099609 C 9.4764844 29.499609 12.596641 30.257812 15.556641 30.257812 C 21.756641 30.257812 25.796875 27.09875 25.796875 22.21875 C 25.796875 21.176792 25.614724 20.29608 25.302734 19.533203 L 20.724609 19.533203 z " />
    </g>
    <path
       d="m 4.481,14.549821 h 23.232 v 2.897858 H 4.481 Z"
       stroke-width="1.18787"
       id="path6"
       style="fill:#67727d;fill-opacity:1" />
  </g>
</svg>
