<?xml version="1.0" encoding="UTF-8" standalone="no"?>
<svg
   width="32"
   height="32"
   version="1.1"
   viewBox="0 0 32 32"
   id="svg8"
   xmlns="http://www.w3.org/2000/svg"
   xmlns:svg="http://www.w3.org/2000/svg"
   xmlns:rdf="http://www.w3.org/1999/02/22-rdf-syntax-ns#"
   xmlns:cc="http://creativecommons.org/ns#"
   xmlns:dc="http://purl.org/dc/elements/1.1/">
  <metadata
     id="metadata14">
    <rdf:RDF>
      <cc:Work
         rdf:about="">
        <dc:format>image/svg+xml</dc:format>
        <dc:type
           rdf:resource="http://purl.org/dc/dcmitype/StillImage" />
      </cc:Work>
    </rdf:RDF>
  </metadata>
  <defs
     id="defs12" />
  <g
     transform="matrix(.91079 0 0 .91079 .96319 .8742)"
     aria-label="a"
     id="g4"
     style="fill:#67727d;fill-opacity:1">
    <path
       d="m22.243 15.056v-2.9688c0-1.2846-0.40531-2.4089-1.4209-3.4375-1.3672-1.3542-2.7808-2.0312-4.6948-2.0312-1.9271 0-3.5742 0.67708-4.9414 2.0312-1.3542 1.3542-2.0312 2.9948-2.0312 4.9219 0 1.9141 0.67708 3.5547 2.0312 4.9219 1.3672 1.3542 3.0143 2.0312 4.9414 2.0312 1.9141 0 3.3277-0.67708 4.6948-2.0312 1.0156-1.0286 1.4209-2.1529 1.4209-3.4375zm0.68109-9.5898v-2.9525h4.0625v22.151l-4.0625 0.0078v-3.0151c-1.9531 2.0182-4.2188 3.0273-6.7969 3.0273-3.0729 0-5.6966-1.0807-7.8711-3.2422-2.1615-2.1745-3.2422-4.7982-3.2422-7.8711s1.0807-5.6901 3.2422-7.8516c2.1745-2.1745 4.7982-3.2617 7.8711-3.2617 2.5781 0 4.8438 1.0026 6.7969 3.0078z"
       id="path2"
       style="fill:#67727d;fill-opacity:1" />
  </g>
  <path
     id="rect6"
     d="M 5.0847001,28.84 H 26.9177 v 2.9481 H 5.0847001 Z"
     style="fill:#67727d;fill-opacity:1" />
</svg>
