<?xml version="1.0" encoding="UTF-8" standalone="no"?>
<!-- Created with Inkscape (http://www.inkscape.org/) -->

<svg
   width="32"
   height="32"
   viewBox="0 0 32 32.000001"
   id="svg2"
   version="1.1"
   xmlns:xlink="http://www.w3.org/1999/xlink"
   xmlns="http://www.w3.org/2000/svg"
   xmlns:svg="http://www.w3.org/2000/svg"
   xmlns:rdf="http://www.w3.org/1999/02/22-rdf-syntax-ns#"
   xmlns:cc="http://creativecommons.org/ns#"
   xmlns:dc="http://purl.org/dc/elements/1.1/">
  <defs
     id="defs4">
    <linearGradient
       xlink:href="#linearGradient5704"
       y2="190.66341"
       x2="-31.90349"
       y1="182.98399"
       x1="-36.601669"
       gradientUnits="userSpaceOnUse"
       id="linearGradient5585" />
    <linearGradient
       id="linearGradient5704">
      <stop
         style="stop-color:#5a5a5a;stop-opacity:1"
         offset="0"
         id="stop5706" />
      <stop
         style="stop-color:#000000;stop-opacity:1"
         offset="1.0000000"
         id="stop5708" />
    </linearGradient>
    <linearGradient
       xlink:href="#linearGradient5704"
       y2="190.66341"
       x2="-31.90349"
       y1="182.98399"
       x1="-36.601669"
       gradientUnits="userSpaceOnUse"
       id="linearGradient5225" />
    <linearGradient
       xlink:href="#linearGradient5704"
       y2="209.2774"
       x2="14.01084"
       y1="203.3658"
       x1="10.04167"
       gradientTransform="matrix(1.346661,0,0,0.715969,-52.65426,45.42126)"
       gradientUnits="userSpaceOnUse"
       id="linearGradient5519" />
    <linearGradient
       id="linearGradient5740">
      <stop
         id="stop5742"
         offset="0.0000000"
         style="stop-color:#ffffff;stop-opacity:1" />
      <stop
         id="stop5744"
         offset="1.0000000"
         style="stop-color:#98b6d3;stop-opacity:1" />
    </linearGradient>
    <linearGradient
       xlink:href="#linearGradient5704"
       y2="190.66341"
       x2="-31.90349"
       y1="182.98399"
       x1="-36.601669"
       gradientUnits="userSpaceOnUse"
       id="linearGradient8578" />
    <linearGradient
       xlink:href="#linearGradient5704"
       y2="209.2774"
       x2="14.01084"
       y1="203.3658"
       x1="10.04167"
       gradientTransform="matrix(1.346661,0,0,0.715969,-52.65426,45.42126)"
       gradientUnits="userSpaceOnUse"
       id="linearGradient5579" />
    <linearGradient
       xlink:href="#linearGradient5704"
       y2="209.2774"
       x2="14.01084"
       y1="203.3658"
       x1="10.04167"
       gradientTransform="matrix(1.128037,0,0,0.860357,-56.33685,-3.243876)"
       gradientUnits="userSpaceOnUse"
       id="linearGradient5567" />
    <linearGradient
       xlink:href="#linearGradient5704"
       y2="209.2774"
       x2="14.01084"
       y1="203.3658"
       x1="10.04167"
       gradientTransform="matrix(2.125329,0,0,0.860357,-66.82105,3.798256)"
       gradientUnits="userSpaceOnUse"
       id="linearGradient5573" />
    <linearGradient
       xlink:href="#linearGradient5704"
       y2="209.2774"
       x2="14.01084"
       y1="203.3658"
       x1="10.04167"
       gradientTransform="matrix(1.379581,0,0,0.714792,-52.98861,39.49312)"
       gradientUnits="userSpaceOnUse"
       id="linearGradient5561" />
    <linearGradient
       xlink:href="#linearGradient5704"
       y2="209.2774"
       x2="14.01084"
       y1="203.3658"
       x1="10.04167"
       gradientTransform="matrix(1.346661,0,0,0.715969,-52.65426,45.42126)"
       gradientUnits="userSpaceOnUse"
       id="linearGradient8670" />
    <linearGradient
       xlink:href="#linearGradient5704"
       y2="190.66341"
       x2="-31.90349"
       y1="182.98399"
       x1="-36.601669"
       gradientUnits="userSpaceOnUse"
       id="linearGradient8694" />
    <linearGradient
       xlink:href="#linearGradient5704"
       y2="209.2774"
       x2="14.01084"
       y1="203.3658"
       x1="10.04167"
       gradientTransform="matrix(1.346661,0,0,0.715969,-52.65426,45.42126)"
       gradientUnits="userSpaceOnUse"
       id="linearGradient8702" />
    <linearGradient
       xlink:href="#linearGradient5704"
       y2="190.66341"
       x2="-31.90349"
       y1="182.98399"
       x1="-36.601669"
       gradientTransform="matrix(0.979208,0,0,1.000037,-0.74827,-0.0068457)"
       gradientUnits="userSpaceOnUse"
       id="linearGradient8734" />
    <linearGradient
       xlink:href="#linearGradient5704"
       y2="190.66341"
       x2="-31.90349"
       y1="182.98399"
       x1="-36.601669"
       gradientUnits="userSpaceOnUse"
       id="linearGradient8742" />
    <linearGradient
       xlink:href="#linearGradient5704"
       y2="209.2774"
       x2="14.01084"
       y1="203.3658"
       x1="10.04167"
       gradientTransform="matrix(1.346661,0,0,0.715969,-52.65426,45.42126)"
       gradientUnits="userSpaceOnUse"
       id="linearGradient8771" />
    <linearGradient
       xlink:href="#linearGradient5704"
       y2="190.66341"
       x2="-31.90349"
       y1="182.98399"
       x1="-36.601669"
       gradientUnits="userSpaceOnUse"
       id="linearGradient8795" />
    <linearGradient
       xlink:href="#linearGradient5704"
       y2="209.2774"
       x2="14.01084"
       y1="203.3658"
       x1="10.04167"
       gradientTransform="matrix(1.379581,0,0,0.714792,-52.98861,39.49312)"
       gradientUnits="userSpaceOnUse"
       id="linearGradient8803" />
    <linearGradient
       xlink:href="#linearGradient5704"
       y2="209.2774"
       x2="14.01084"
       y1="203.3658"
       x1="10.04167"
       gradientTransform="matrix(1.128037,0,0,0.860357,-56.33685,-3.243876)"
       gradientUnits="userSpaceOnUse"
       id="linearGradient8827" />
    <linearGradient
       xlink:href="#linearGradient5704"
       y2="209.2774"
       x2="14.01084"
       y1="203.3658"
       x1="10.04167"
       gradientTransform="matrix(2.125329,0,0,0.860357,-66.82105,3.798256)"
       gradientUnits="userSpaceOnUse"
       id="linearGradient8851" />
    <linearGradient
       xlink:href="#linearGradient5704"
       y2="209.2774"
       x2="14.01084"
       y1="203.3658"
       x1="10.04167"
       gradientTransform="matrix(1.346661,0,0,0.715969,-52.65426,45.42126)"
       gradientUnits="userSpaceOnUse"
       id="linearGradient8896" />
    <linearGradient
       xlink:href="#linearGradient5704"
       y2="190.66341"
       x2="-31.90349"
       y1="182.98399"
       x1="-36.601669"
       gradientUnits="userSpaceOnUse"
       id="linearGradient8920" />
    <linearGradient
       xlink:href="#linearGradient5704"
       id="linearGradient5941"
       gradientUnits="userSpaceOnUse"
       gradientTransform="matrix(0.979208,0,0,1.000037,-0.74827,-0.0068457)"
       x1="-36.601669"
       y1="182.98399"
       x2="-31.90349"
       y2="190.66341" />
  </defs>
  <metadata
     id="metadata7">
    <rdf:RDF>
      <cc:Work
         rdf:about="">
        <dc:format>image/svg+xml</dc:format>
        <dc:type
           rdf:resource="http://purl.org/dc/dcmitype/StillImage" />
      </cc:Work>
    </rdf:RDF>
  </metadata>
  <g
     id="layer1"
     transform="translate(0,-1020.3621)">
    <g
       transform="matrix(1,0,0,0.998006,47.570503,849.77544)"
       id="g7729">
      <g
         transform="matrix(1,0,0,1.662154,-8.963779,-123.5118)"
         id="g7749">
        <g
           id="g4378"
           transform="matrix(1.5073932,0,0,1.5286625,18.846199,-94.709835)"
           style="stroke-width:0.65876555;fill:#67727d;fill-opacity:1">
          <g
             transform="matrix(1,0,0,0.60283102,-17.548788,178.73468)"
             id="g4360"
             style="fill:#67727d;stroke-width:0.65876555;fill-opacity:1">
            <path
               id="path4328"
               d="m 0,0 v 1 l -12.36,12.36 -2,-2 L -3,0 Z"
               style="fill:#67727d;fill-opacity:1;stroke:none;stroke-width:0.65876555px;stroke-linecap:butt;stroke-linejoin:miter;stroke-opacity:1" />
            <path
               id="path4330"
               d="m 0,17 v 1 h -3 l -11.36,-11.36 2,-2 z"
               style="fill:#67727d;fill-opacity:1;stroke:none;stroke-width:0.65876555px;stroke-linecap:butt;stroke-linejoin:miter;stroke-opacity:1" />
            <path
               id="path4334"
               d="m -15.964408,-0.834625 a 3.9374998,3.9374998 0 0 0 -3.9375,3.9375 3.9374998,3.9374998 0 0 0 3.9375,3.9375 3.9374998,3.9374998 0 0 0 3.9375,-3.9375 3.9374998,3.9374998 0 0 0 -3.9375,-3.9375 z m 0.002,1.814453 a 2.125,2.125 0 0 1 2.125,2.125 2.125,2.125 0 0 1 -2.125,2.125 2.125,2.125 0 0 1 -2.125,-2.125 2.125,2.125 0 0 1 2.125,-2.125 z"
               style="fill:#67727d;fill-opacity:1;stroke:none;stroke-width:2.70093894;stroke-linecap:round;stroke-opacity:0.98039216" />
            <path
               style="fill:#67727d;fill-opacity:1;stroke:none;stroke-width:2.70093894;stroke-linecap:round;stroke-opacity:0.98039216"
               d="m -15.964408,10.915374 a 3.9374998,3.9374998 0 0 0 -3.9375,3.9375 3.9374998,3.9374998 0 0 0 3.9375,3.9375 3.9374998,3.9374998 0 0 0 3.9375,-3.9375 3.9374998,3.9374998 0 0 0 -3.9375,-3.9375 z m 0.002,1.814453 a 2.125,2.125 0 0 1 2.125,2.125 2.125,2.125 0 0 1 -2.125,2.125 2.125,2.125 0 0 1 -2.125,-2.125 2.125,2.125 0 0 1 2.125,-2.125 z"
               id="path4341" />
            <circle
               r="0.71874994"
               cy="8.9816933"
               cx="-10.145504"
               id="path4353"
               style="fill:#ffffff;fill-opacity:1;stroke:none;stroke-width:2.70093894;stroke-linecap:round;stroke-opacity:0.98039216" />
          </g>
        </g>
      </g>
    </g>
  </g>
</svg>
