<?xml version="1.0" encoding="UTF-8" standalone="no"?>
<!-- Created with Inkscape (http://www.inkscape.org/) -->

<svg
   width="32"
   height="32"
   viewBox="0 0 32 32.000001"
   id="svg2"
   version="1.1"
   xmlns:xlink="http://www.w3.org/1999/xlink"
   xmlns="http://www.w3.org/2000/svg"
   xmlns:svg="http://www.w3.org/2000/svg"
   xmlns:rdf="http://www.w3.org/1999/02/22-rdf-syntax-ns#"
   xmlns:cc="http://creativecommons.org/ns#"
   xmlns:dc="http://purl.org/dc/elements/1.1/">
  <defs
     id="defs4">
    <linearGradient
       xlink:href="#linearGradient5704"
       y2="190.66341"
       x2="-31.90349"
       y1="182.98399"
       x1="-36.601669"
       gradientUnits="userSpaceOnUse"
       id="linearGradient5585" />
    <linearGradient
       id="linearGradient5704">
      <stop
         style="stop-color:#5a5a5a;stop-opacity:1"
         offset="0"
         id="stop5706" />
      <stop
         style="stop-color:#000000;stop-opacity:1"
         offset="1.0000000"
         id="stop5708" />
    </linearGradient>
    <linearGradient
       xlink:href="#linearGradient5704"
       y2="190.66341"
       x2="-31.90349"
       y1="182.98399"
       x1="-36.601669"
       gradientUnits="userSpaceOnUse"
       id="linearGradient5225" />
    <linearGradient
       xlink:href="#linearGradient5704"
       y2="209.2774"
       x2="14.01084"
       y1="203.3658"
       x1="10.04167"
       gradientTransform="matrix(1.346661,0,0,0.715969,-52.65426,45.42126)"
       gradientUnits="userSpaceOnUse"
       id="linearGradient5519" />
    <linearGradient
       id="linearGradient5740">
      <stop
         id="stop5742"
         offset="0.0000000"
         style="stop-color:#ffffff;stop-opacity:1" />
      <stop
         id="stop5744"
         offset="1.0000000"
         style="stop-color:#98b6d3;stop-opacity:1" />
    </linearGradient>
    <linearGradient
       xlink:href="#linearGradient5704"
       y2="190.66341"
       x2="-31.90349"
       y1="182.98399"
       x1="-36.601669"
       gradientUnits="userSpaceOnUse"
       id="linearGradient8578" />
    <linearGradient
       xlink:href="#linearGradient5704"
       y2="209.2774"
       x2="14.01084"
       y1="203.3658"
       x1="10.04167"
       gradientTransform="matrix(1.346661,0,0,0.715969,-52.65426,45.42126)"
       gradientUnits="userSpaceOnUse"
       id="linearGradient5579" />
    <linearGradient
       xlink:href="#linearGradient5704"
       y2="209.2774"
       x2="14.01084"
       y1="203.3658"
       x1="10.04167"
       gradientTransform="matrix(1.128037,0,0,0.860357,-56.33685,-3.243876)"
       gradientUnits="userSpaceOnUse"
       id="linearGradient5567" />
    <linearGradient
       xlink:href="#linearGradient5704"
       y2="209.2774"
       x2="14.01084"
       y1="203.3658"
       x1="10.04167"
       gradientTransform="matrix(2.125329,0,0,0.860357,-66.82105,3.798256)"
       gradientUnits="userSpaceOnUse"
       id="linearGradient5573" />
    <linearGradient
       xlink:href="#linearGradient5704"
       y2="209.2774"
       x2="14.01084"
       y1="203.3658"
       x1="10.04167"
       gradientTransform="matrix(1.379581,0,0,0.714792,-52.98861,39.49312)"
       gradientUnits="userSpaceOnUse"
       id="linearGradient5561" />
    <linearGradient
       xlink:href="#linearGradient5704"
       y2="209.2774"
       x2="14.01084"
       y1="203.3658"
       x1="10.04167"
       gradientTransform="matrix(1.346661,0,0,0.715969,-52.65426,45.42126)"
       gradientUnits="userSpaceOnUse"
       id="linearGradient8670" />
    <linearGradient
       xlink:href="#linearGradient5704"
       y2="190.66341"
       x2="-31.90349"
       y1="182.98399"
       x1="-36.601669"
       gradientUnits="userSpaceOnUse"
       id="linearGradient8694" />
    <linearGradient
       xlink:href="#linearGradient5704"
       y2="209.2774"
       x2="14.01084"
       y1="203.3658"
       x1="10.04167"
       gradientTransform="matrix(1.346661,0,0,0.715969,-52.65426,45.42126)"
       gradientUnits="userSpaceOnUse"
       id="linearGradient8702" />
    <linearGradient
       xlink:href="#linearGradient5704"
       y2="190.66341"
       x2="-31.90349"
       y1="182.98399"
       x1="-36.601669"
       gradientTransform="matrix(0.979208,0,0,1.000037,-0.74827,-0.0068457)"
       gradientUnits="userSpaceOnUse"
       id="linearGradient8734" />
    <linearGradient
       xlink:href="#linearGradient5704"
       y2="190.66341"
       x2="-31.90349"
       y1="182.98399"
       x1="-36.601669"
       gradientUnits="userSpaceOnUse"
       id="linearGradient8742" />
    <linearGradient
       xlink:href="#linearGradient5704"
       y2="209.2774"
       x2="14.01084"
       y1="203.3658"
       x1="10.04167"
       gradientTransform="matrix(1.346661,0,0,0.715969,-52.65426,45.42126)"
       gradientUnits="userSpaceOnUse"
       id="linearGradient8771" />
    <linearGradient
       xlink:href="#linearGradient5704"
       y2="190.66341"
       x2="-31.90349"
       y1="182.98399"
       x1="-36.601669"
       gradientUnits="userSpaceOnUse"
       id="linearGradient8795" />
    <linearGradient
       xlink:href="#linearGradient5704"
       y2="209.2774"
       x2="14.01084"
       y1="203.3658"
       x1="10.04167"
       gradientTransform="matrix(1.379581,0,0,0.714792,-52.98861,39.49312)"
       gradientUnits="userSpaceOnUse"
       id="linearGradient8803" />
    <linearGradient
       xlink:href="#linearGradient5704"
       y2="209.2774"
       x2="14.01084"
       y1="203.3658"
       x1="10.04167"
       gradientTransform="matrix(1.128037,0,0,0.860357,-56.33685,-3.243876)"
       gradientUnits="userSpaceOnUse"
       id="linearGradient8827" />
    <linearGradient
       xlink:href="#linearGradient5704"
       y2="209.2774"
       x2="14.01084"
       y1="203.3658"
       x1="10.04167"
       gradientTransform="matrix(2.125329,0,0,0.860357,-66.82105,3.798256)"
       gradientUnits="userSpaceOnUse"
       id="linearGradient8851" />
    <linearGradient
       xlink:href="#linearGradient5704"
       y2="209.2774"
       x2="14.01084"
       y1="203.3658"
       x1="10.04167"
       gradientTransform="matrix(1.346661,0,0,0.715969,-52.65426,45.42126)"
       gradientUnits="userSpaceOnUse"
       id="linearGradient8896" />
    <linearGradient
       xlink:href="#linearGradient5704"
       y2="190.66341"
       x2="-31.90349"
       y1="182.98399"
       x1="-36.601669"
       gradientUnits="userSpaceOnUse"
       id="linearGradient8920" />
    <linearGradient
       xlink:href="#linearGradient5704"
       id="linearGradient5941"
       gradientUnits="userSpaceOnUse"
       gradientTransform="matrix(0.979208,0,0,1.000037,-0.74827,-0.0068457)"
       x1="-36.601669"
       y1="182.98399"
       x2="-31.90349"
       y2="190.66341" />
    <clipPath
       clipPathUnits="userSpaceOnUse"
       id="clipPath4482">
      <path
         style="fill:#ff0000;fill-opacity:1;fill-rule:nonzero;stroke:none;stroke-width:1px;stroke-linecap:butt;stroke-linejoin:miter;stroke-opacity:1"
         d="m -2.4960938,979.71171 v 4.91406 c 0.015002,0 0.029915,-0.002 0.044922,-0.002 0.2629365,9.3e-4 0.5263569,0.009 0.7890625,0.0117 0.1833988,0.002 0.3673954,-0.003 0.5507813,-0.002 0.16238514,6.7e-4 0.32394227,10e-5 0.4863281,0 0.15591439,2e-5 0.31088249,10e-6 0.46679688,0 0.12051736,-1e-5 0.24276388,-1e-5 0.36328124,0 0.94669278,2e-5 1.20168988,0.68018 0.79101563,1.06836 0.0108263,0.0206 0.0246422,0.0389 0.0371092,0.0586 0.043955,-0.002 0.087563,-0.004 0.1347657,-0.006 0.019389,-1.4e-4 0.039206,-0.002 0.058594,-0.002 -0.04353,0.0146 -0.096785,0.0183 -0.1269531,0.0527 -0.00864,0.01 -0.010316,0.0244 -0.017578,0.0352 0.017425,0.0345 0.045837,0.0625 0.060547,0.0977 -0.017824,-0.0562 -0.042419,-0.0698 -0.066406,-0.0879 -0.026032,0.0414 -0.046918,0.0864 -0.068359,0.13086 h 0.3925781 c 0.1676776,-0.0976 0.303431,-0.15429 0.2617188,0 h 0.2519531 c 6.69e-5,-10e-4 -6.37e-5,-0.003 0,-0.004 0.00387,-0.0621 0.1171236,-0.0438 0.1757813,-0.0645 0.039983,-0.0141 0.090182,-0.072 0.1191406,-0.041 0.035686,0.0382 0.065575,0.0815 0.099609,0.1211 0.1087449,-0.0232 0.1937775,0.12577 0.2695312,0.33203 0.1347559,0.18083 0.2662312,0.36496 0.4042969,0.54297 -0.022981,0.0864 -0.082768,0.1387 -0.1503907,0.18359 0.1006853,0.22525 0.2145056,0.30521 0.3808594,-0.0937 0.00141,-0.003 0.028131,-0.0626 0.039063,-0.10352 -0.00377,-0.0221 -0.0088,-0.0441 -0.00977,-0.0664 -6.95e-4,-0.016 0.018005,0.0289 0.017578,0.0449 -1.644e-4,0.006 -0.00555,0.013 -0.00781,0.0215 0.00321,0.0188 0.00513,0.0378 0.00781,0.0566 0.039045,0.29039 0.090312,0.43019 -0.1367187,0.7461 -0.090459,0.12587 -0.245218,0.19824 -0.390625,0.25195 -0.1706363,0.063 -0.4039576,0.0316 -0.5722657,-0.0332 -0.072144,-0.0277 -0.1382646,-0.0702 -0.2070312,-0.10547 -0.057449,-0.0447 -0.1172657,-0.0867 -0.171875,-0.13476 -0.1031144,-0.0909 -0.1885755,-0.2017 -0.2597656,-0.32032 H -2.496097 v 6.61915 h 14.220706 v -14.22266 z m 4.4980469,6.26953 c -0.00503,0.001 -0.00693,0.005 -0.011719,0.006 0.084743,-0.002 0.1503307,0.0455 0.203125,0.11914 0.0044,-0.005 0.00934,-0.013 0.013672,-0.0176 -0.034927,-0.0869 -0.096823,-0.1331 -0.2050781,-0.10742 z m -0.097656,0.0547 c -0.015886,0.0135 -0.028184,0.0296 -0.039063,0.0469 0.011612,-0.008 0.018232,-0.009 0.035156,-0.0234 7.791e-4,-0.007 0.00323,-0.0167 0.00391,-0.0234 z m -0.011719,0.0742 c -0.02024,0.0206 -0.033682,0.0443 -0.050781,0.0664 0.011225,0.0136 0.021893,0.0275 0.033203,0.041 0.00601,-0.0352 0.013087,-0.0746 0.017578,-0.10742 z m 0.796875,0.54883 c 4.39e-4,10e-4 0.00151,0.002 0.00195,0.004 0.030225,0.0249 0.016215,0.0193 0.044922,0.0254 -0.010341,-0.008 -0.030268,-0.0171 -0.046875,-0.0293 z m -0.1113281,0.55859 c -0.00376,0.003 -0.010074,0.004 -0.013672,0.008 -0.00126,10e-4 0.00148,0.003 0.00195,0.004 4.356e-4,0.002 -8.631e-4,0.007 0,0.006 0.00372,-0.006 0.00802,-0.0116 0.011719,-0.0176 z"
         id="path4484" />
    </clipPath>
  </defs>
  <metadata
     id="metadata7">
    <rdf:RDF>
      <cc:Work
         rdf:about="">
        <dc:format>image/svg+xml</dc:format>
        <dc:type
           rdf:resource="http://purl.org/dc/dcmitype/StillImage" />
      </cc:Work>
    </rdf:RDF>
  </metadata>
  <g
     id="layer1"
     transform="translate(0,-1020.3621)">
    <path
       id="rect4278-36"
       d="m 0,1024.3621 v 24 h 32 v -18.2988 H 15.555598 l -3.10052,-5.7012 z"
       style="color:#000000;clip-rule:nonzero;display:inline;overflow:visible;visibility:visible;opacity:1;isolation:auto;mix-blend-mode:normal;color-interpolation:sRGB;color-interpolation-filters:linearRGB;solid-color:#000000;solid-opacity:1;fill:#f2dcb7;fill-opacity:1;fill-rule:nonzero;stroke:none;stroke-width:0;stroke-linecap:butt;stroke-linejoin:round;stroke-miterlimit:4;stroke-dasharray:none;stroke-dashoffset:0;stroke-opacity:0.98039216;color-rendering:auto;image-rendering:auto;shape-rendering:auto;text-rendering:auto;enable-background:accumulate" />
    <g
       id="g4592"
       transform="matrix(1.3575197,0,0,1.3583287,-5.6032549,-372.09426)"
       style="stroke-width:0.73641819">
      <path
         style="fill:none;stroke:#3b8eb9;stroke-width:1.3255527;stroke-linecap:butt;stroke-linejoin:miter;stroke-miterlimit:4;stroke-dasharray:none;stroke-opacity:1"
         d="m 15.434688,1034.8702 v 4.2208 l 2.732722,2.7327"
         id="path4268" />
      <g
         transform="translate(11.21645,51.593323)"
         id="g4586"
         style="stroke-width:0.73641819">
        <path
           style="fill:none;fill-opacity:1;stroke:#3b8eb9;stroke-width:1.98832904;stroke-miterlimit:4;stroke-dasharray:none;stroke-opacity:1"
           d="m 10.775187,986.82281 c 2e-6,3.40251 -2.758288,6.16079 -6.1608124,6.16079 -3.4025244,0 -6.1608154,-2.75828 -6.1608123,-6.16079 1.3e-6,-1.42355 0.482824,-2.73433 1.29364453,-3.77752 1.12137342,-1.44274 2.87011437,-2.37365 4.83666667,-2.38319 0.010161,-5e-5 0.020328,-7e-5 0.030501,-7e-5 3.4025205,0 6.1608095,2.75827 6.1608125,6.16078 z"
           id="path5010-6"
           clip-path="url(#clipPath4482)" />
        <path
           style="fill:#3b8eb9;fill-opacity:1;stroke:none;stroke-width:0.73641819px;stroke-linecap:butt;stroke-linejoin:miter;stroke-opacity:1"
           d="m -2.8123559,985.88397 h 4 l -1.4999998,-1.5 -2.5000001,-2.5 v 4"
           id="path4570" />
      </g>
    </g>
  </g>
</svg>
