<?xml version="1.0" encoding="UTF-8" standalone="no"?>
<!-- Created with Inkscape (http://www.inkscape.org/) -->

<svg
   version="1.1"
   id="svg4392"
   width="32"
   height="32"
   viewBox="0 0 32 32"
   xmlns="http://www.w3.org/2000/svg"
   xmlns:svg="http://www.w3.org/2000/svg"
   xmlns:rdf="http://www.w3.org/1999/02/22-rdf-syntax-ns#"
   xmlns:cc="http://creativecommons.org/ns#"
   xmlns:dc="http://purl.org/dc/elements/1.1/">
  <metadata
     id="metadata4398">
    <rdf:RDF>
      <cc:Work
         rdf:about="">
        <dc:format>image/svg+xml</dc:format>
        <dc:type
           rdf:resource="http://purl.org/dc/dcmitype/StillImage" />
      </cc:Work>
    </rdf:RDF>
  </metadata>
  <defs
     id="defs4396">
    <marker
       orient="auto"
       refY="0.0"
       refX="0.0"
       id="TriangleInL"
       style="overflow:visible">
      <path
         id="path4953"
         d="M 5.77,0.0 L -2.88,5.0 L -2.88,-5.0 L 5.77,0.0 z "
         style="fill-rule:evenodd;stroke:#c80000;stroke-width:1pt;stroke-opacity:1;fill:#c80000;fill-opacity:1"
         transform="scale(-0.8)" />
    </marker>
    <marker
       orient="auto"
       refY="0.0"
       refX="0.0"
       id="Tail"
       style="overflow:visible">
      <g
         id="g4868"
         transform="scale(-1.2)"
         style="stroke:#c80000;stroke-opacity:1;fill:#c80000;fill-opacity:1">
        <path
           id="path4856"
           d="M -3.8048674,-3.9585227 L 0.54352094,0"
           style="fill:#c80000;fill-rule:evenodd;stroke:#c80000;stroke-width:0.8;stroke-linecap:round;stroke-opacity:1;fill-opacity:1" />
        <path
           id="path4858"
           d="M -1.2866832,-3.9585227 L 3.0617053,0"
           style="fill:#c80000;fill-rule:evenodd;stroke:#c80000;stroke-width:0.8;stroke-linecap:round;stroke-opacity:1;fill-opacity:1" />
        <path
           id="path4860"
           d="M 1.3053582,-3.9585227 L 5.6537466,0"
           style="fill:#c80000;fill-rule:evenodd;stroke:#c80000;stroke-width:0.8;stroke-linecap:round;stroke-opacity:1;fill-opacity:1" />
        <path
           id="path4862"
           d="M -3.8048674,4.1775838 L 0.54352094,0.21974226"
           style="fill:#c80000;fill-rule:evenodd;stroke:#c80000;stroke-width:0.8;stroke-linecap:round;stroke-opacity:1;fill-opacity:1" />
        <path
           id="path4864"
           d="M -1.2866832,4.1775838 L 3.0617053,0.21974226"
           style="fill:#c80000;fill-rule:evenodd;stroke:#c80000;stroke-width:0.8;stroke-linecap:round;stroke-opacity:1;fill-opacity:1" />
        <path
           id="path4866"
           d="M 1.3053582,4.1775838 L 5.6537466,0.21974226"
           style="fill:#c80000;fill-rule:evenodd;stroke:#c80000;stroke-width:0.8;stroke-linecap:round;stroke-opacity:1;fill-opacity:1" />
      </g>
    </marker>
    <marker
       orient="auto"
       refY="0.0"
       refX="0.0"
       id="marker5104"
       style="overflow:visible">
      <path
         id="path5102"
         style="fill-rule:evenodd;stroke-width:0.625;stroke-linejoin:round;stroke:#c80000;stroke-opacity:1;fill:#c80000;fill-opacity:1"
         d="M 8.7185878,4.0337352 L -2.2072895,0.016013256 L 8.7185884,-4.0017078 C 6.9730900,-1.6296469 6.9831476,1.6157441 8.7185878,4.0337352 z "
         transform="scale(1.1) translate(1,0)" />
    </marker>
    <marker
       orient="auto"
       refY="0.0"
       refX="0.0"
       id="Arrow1Mstart"
       style="overflow:visible">
      <path
         id="path4826"
         d="M 0.0,0.0 L 5.0,-5.0 L -12.5,0.0 L 5.0,5.0 L 0.0,0.0 z "
         style="fill-rule:evenodd;stroke:#c80000;stroke-width:1pt;stroke-opacity:1;fill:#c80000;fill-opacity:1"
         transform="scale(0.4) translate(10,0)" />
    </marker>
    <marker
       orient="auto"
       refY="0.0"
       refX="0.0"
       id="marker5098"
       style="overflow:visible">
      <path
         id="path5096"
         d="M 0.0,0.0 L 5.0,-5.0 L -12.5,0.0 L 5.0,5.0 L 0.0,0.0 z "
         style="fill-rule:evenodd;stroke:#c80000;stroke-width:1pt;stroke-opacity:1;fill:#c80000;fill-opacity:1"
         transform="scale(0.8) translate(12.5,0)" />
    </marker>
    <marker
       orient="auto"
       refY="0.0"
       refX="0.0"
       id="marker5094"
       style="overflow:visible">
      <path
         id="path5092"
         d="M 0.0,0.0 L 5.0,-5.0 L -12.5,0.0 L 5.0,5.0 L 0.0,0.0 z "
         style="fill-rule:evenodd;stroke:#c80000;stroke-width:1pt;stroke-opacity:1;fill:#c80000;fill-opacity:1"
         transform="scale(0.8) translate(12.5,0)" />
    </marker>
    <marker
       orient="auto"
       refY="0.0"
       refX="0.0"
       id="marker5090"
       style="overflow:visible">
      <path
         id="path5088"
         d="M 0.0,0.0 L 5.0,-5.0 L -12.5,0.0 L 5.0,5.0 L 0.0,0.0 z "
         style="fill-rule:evenodd;stroke:#c80000;stroke-width:1pt;stroke-opacity:1;fill:#c80000;fill-opacity:1"
         transform="scale(0.8) translate(12.5,0)" />
    </marker>
    <marker
       orient="auto"
       refY="0.0"
       refX="0.0"
       id="Arrow2Mstart"
       style="overflow:visible">
      <path
         id="path4844"
         style="fill-rule:evenodd;stroke-width:0.625;stroke-linejoin:round;stroke:#c80000;stroke-opacity:1;fill:#c80000;fill-opacity:1"
         d="M 8.7185878,4.0337352 L -2.2072895,0.016013256 L 8.7185884,-4.0017078 C 6.9730900,-1.6296469 6.9831476,1.6157441 8.7185878,4.0337352 z "
         transform="scale(0.6) translate(0,0)" />
    </marker>
    <marker
       orient="auto"
       refY="0.0"
       refX="0.0"
       id="Arrow2Lstart"
       style="overflow:visible">
      <path
         id="path4838"
         style="fill-rule:evenodd;stroke-width:0.625;stroke-linejoin:round;stroke:#c80000;stroke-opacity:1;fill:#c80000;fill-opacity:1"
         d="M 8.7185878,4.0337352 L -2.2072895,0.016013256 L 8.7185884,-4.0017078 C 6.9730900,-1.6296469 6.9831476,1.6157441 8.7185878,4.0337352 z "
         transform="scale(1.1) translate(1,0)" />
    </marker>
    <marker
       orient="auto"
       refY="0.0"
       refX="0.0"
       id="Arrow1Lstart"
       style="overflow:visible">
      <path
         id="path4820"
         d="M 0.0,0.0 L 5.0,-5.0 L -12.5,0.0 L 5.0,5.0 L 0.0,0.0 z "
         style="fill-rule:evenodd;stroke:#c80000;stroke-width:1pt;stroke-opacity:1;fill:#c80000;fill-opacity:1"
         transform="scale(0.8) translate(12.5,0)" />
    </marker>
  </defs>
  <g
     id="g4400"
     transform="translate(0,-10.666668)">
    <rect
       style="fill:#67727d;fill-opacity:1;stroke:#000000;stroke-width:0.09999998;stroke-miterlimit:4;stroke-dasharray:none;stroke-opacity:1"
       id="rect4947"
       width="5.4454999"
       height="17.585413"
       x="-32.281361"
       y="10.549557"
       ry="2.2420516"
       rx="2.2420516"
       transform="matrix(-0.73800826,-0.67479168,-0.67477685,0.73802182,0,0)" />
    <path
       style="fill:none;stroke:#c80000;stroke-width:1.00157;stroke-linecap:butt;stroke-linejoin:miter;stroke-miterlimit:4;stroke-dasharray:none;stroke-opacity:1;marker-start:url(#TriangleInL)"
       d="m 19.235742,21.184224 7.025814,-0.22895"
       id="path4264" />
    <path
       style="fill:#67727d;fill-opacity:1;stroke:#000000;stroke-width:0.09999998"
       mask="none"
       d="m 20.476312,11.516277 a 9.6242943,9.6238899 0 0 1 9.623047,9.625 9.6242943,9.6238899 0 0 1 -9.623047,9.623047 9.6242943,9.6238899 0 0 1 -9.625,-9.623047 9.6242943,9.6238899 0 0 1 9.625,-9.625 z m 0,1.88086 a 7.7435017,7.743176 0 0 0 -7.74414,7.74414 7.7435017,7.743176 0 0 0 7.74414,7.742188 7.7435017,7.743176 0 0 0 7.742188,-7.742188 7.7435017,7.743176 0 0 0 -7.742188,-7.74414 z"
       id="path5588" />
  </g>
</svg>
