<?xml version="1.0" encoding="UTF-8" standalone="no"?>
<!-- Created with Inkscape (http://www.inkscape.org/) -->

<svg
   version="1.1"
   id="svg4392"
   width="32"
   height="32"
   viewBox="0 0 32 32"
   xmlns="http://www.w3.org/2000/svg"
   xmlns:svg="http://www.w3.org/2000/svg"
   xmlns:rdf="http://www.w3.org/1999/02/22-rdf-syntax-ns#"
   xmlns:cc="http://creativecommons.org/ns#"
   xmlns:dc="http://purl.org/dc/elements/1.1/">
  <metadata
     id="metadata4398">
    <rdf:RDF>
      <cc:Work
         rdf:about="">
        <dc:format>image/svg+xml</dc:format>
        <dc:type
           rdf:resource="http://purl.org/dc/dcmitype/StillImage" />
      </cc:Work>
    </rdf:RDF>
  </metadata>
  <defs
     id="defs4396" />
  <g
     id="g4400"
     transform="translate(0,-10.666668)">
    <path
       id="rect4278-36"
       d="M 4.0000005,10.666653 V 42.666668 H 27.999997 V 18.907099 l -8.219772,-8.240446 z"
       style="color:#000000;clip-rule:nonzero;display:inline;overflow:visible;visibility:visible;opacity:1;isolation:auto;mix-blend-mode:normal;color-interpolation:sRGB;color-interpolation-filters:linearRGB;solid-color:#000000;solid-opacity:1;fill:#cadfd2;fill-opacity:1;fill-rule:nonzero;stroke:#67727d;stroke-width:0;stroke-linecap:butt;stroke-linejoin:round;stroke-miterlimit:4;stroke-dasharray:none;stroke-dashoffset:0;stroke-opacity:0.98039216;color-rendering:auto;image-rendering:auto;shape-rendering:auto;text-rendering:auto;enable-background:accumulate" />
    <path
       style="fill:#efefef;fill-opacity:1;stroke:#000000;stroke-width:0;stroke-linecap:butt;stroke-linejoin:miter;stroke-miterlimit:4;stroke-dasharray:none;stroke-opacity:1"
       d="m 27.847039,19.111042 -8.219773,-8.240456 -0.06434,8.240446 z"
       id="path4948" />
    <rect
       style="fill:#67727d;fill-opacity:1;stroke:#000000;stroke-width:0.09999998;stroke-miterlimit:4;stroke-dasharray:none;stroke-opacity:1"
       id="rect4947"
       width="5.4454999"
       height="17.585413"
       x="-32.281361"
       y="10.549557"
       ry="2.2420516"
       rx="2.2420516"
       transform="matrix(-0.73800826,-0.67479168,-0.67477685,0.73802182,0,0)" />
    <path
       style="fill:#67727d;fill-opacity:1;stroke:#000000;stroke-width:0.09999998"
       mask="none"
       d="m 20.476312,11.516277 a 9.6242943,9.6238899 0 0 1 9.623047,9.625 9.6242943,9.6238899 0 0 1 -9.623047,9.623047 9.6242943,9.6238899 0 0 1 -9.625,-9.623047 9.6242943,9.6238899 0 0 1 9.625,-9.625 z m 0,1.88086 a 7.7435017,7.743176 0 0 0 -7.74414,7.74414 7.7435017,7.743176 0 0 0 7.74414,7.742188 7.7435017,7.743176 0 0 0 7.742188,-7.742188 7.7435017,7.743176 0 0 0 -7.742188,-7.74414 z"
       id="path5588" />
  </g>
</svg>
