<?xml version="1.0" encoding="UTF-8" standalone="no"?>
<!-- Created with Inkscape (http://www.inkscape.org/) -->

<svg
   version="1.1"
   id="svg4392"
   width="32"
   height="32"
   viewBox="0 0 32 32"
   xmlns="http://www.w3.org/2000/svg"
   xmlns:svg="http://www.w3.org/2000/svg"
   xmlns:rdf="http://www.w3.org/1999/02/22-rdf-syntax-ns#"
   xmlns:cc="http://creativecommons.org/ns#"
   xmlns:dc="http://purl.org/dc/elements/1.1/">
  <metadata
     id="metadata4398">
    <rdf:RDF>
      <cc:Work
         rdf:about="">
        <dc:format>image/svg+xml</dc:format>
        <dc:type
           rdf:resource="http://purl.org/dc/dcmitype/StillImage" />
      </cc:Work>
    </rdf:RDF>
  </metadata>
  <defs
     id="defs4396" />
  <g
     id="g4400"
     transform="translate(0,-10.666668)">
    <rect
       style="fill:#67727d;fill-opacity:1;stroke:#000000;stroke-width:0.09999998;stroke-miterlimit:4;stroke-dasharray:none;stroke-opacity:1"
       id="rect4947"
       width="5.4454999"
       height="17.585413"
       x="-32.281361"
       y="10.549557"
       ry="2.2420516"
       rx="2.2420516"
       transform="matrix(-0.73800826,-0.67479168,-0.67477685,0.73802182,0,0)" />
    <path
       style="fill:#67727d;fill-opacity:1;stroke:#000000;stroke-width:0.09999998"
       mask="none"
       d="m 20.476312,11.516277 a 9.6242943,9.6238899 0 0 1 9.623047,9.625 9.6242943,9.6238899 0 0 1 -9.623047,9.623047 9.6242943,9.6238899 0 0 1 -9.625,-9.623047 9.6242943,9.6238899 0 0 1 9.625,-9.625 z m 0,1.88086 a 7.7435017,7.743176 0 0 0 -7.74414,7.74414 7.7435017,7.743176 0 0 0 7.74414,7.742188 7.7435017,7.743176 0 0 0 7.742188,-7.742188 7.7435017,7.743176 0 0 0 -7.742188,-7.74414 z"
       id="path5588" />
  </g>
</svg>
